{
    "asset" : {
        "generator" : "Khronos glTF Blender I/O v3.2.40",
        "version" : "2.0"
    },
    "scene" : 0,
    "scenes" : [
        {
            "name" : "Scene",
            "nodes" : [
                0
            ]
        }
    ],
    "nodes" : [
        {
            "mesh" : 0,
            "name" : "Curve.010",
            "translation" : [
                7.167880539782345e-05,
                -8.346600225195289e-05,
                0.003433849895372987
            ]
        }
    ],
    "materials" : [
        {
            "doubleSided" : true,
            "name" : "SVGMat.002",
            "pbrMetallicRoughness" : {
                "baseColorFactor" : [
                    1,
                    1,
                    1,
                    1
                ],
                "metallicFactor" : 0.26760563254356384,
                "roughnessFactor" : 0.780281662940979
            }
        }
    ],
    "meshes" : [
        {
            "name" : "Curve.010",
            "primitives" : [
                {
                    "attributes" : {
                        "POSITION" : 0,
                        "NORMAL" : 1,
                        "TEXCOORD_0" : 2
                    },
                    "indices" : 3,
                    "material" : 0
                }
            ]
        }
    ],
    "accessors" : [
        {
            "bufferView" : 0,
            "componentType" : 5126,
            "count" : 1674,
            "max" : [
                0.25050389766693115,
                0.04500001296401024,
                0.07462461292743683
            ],
            "min" : [
                -0.266918808221817,
                -0.04500001296401024,
                -0.07478921115398407
            ],
            "type" : "VEC3"
        },
        {
            "bufferView" : 1,
            "componentType" : 5126,
            "count" : 1674,
            "type" : "VEC3"
        },
        {
            "bufferView" : 2,
            "componentType" : 5126,
            "count" : 1674,
            "type" : "VEC2"
        },
        {
            "bufferView" : 3,
            "componentType" : 5123,
            "count" : 3348,
            "type" : "SCALAR"
        }
    ],
    "bufferViews" : [
        {
            "buffer" : 0,
            "byteLength" : 20088,
            "byteOffset" : 0
        },
        {
            "buffer" : 0,
            "byteLength" : 20088,
            "byteOffset" : 20088
        },
        {
            "buffer" : 0,
            "byteLength" : 13392,
            "byteOffset" : 40176
        },
        {
            "buffer" : 0,
            "byteLength" : 6696,
            "byteOffset" : 53568
        }
    ],
    "buffers" : [
        {
            "byteLength" : 60264,
            "uri" : "data:application/octet-stream;base64,"
        }
    ]
}
