{
    "asset" : {
        "generator" : "Khronos glTF Blender I/O v3.2.40",
        "version" : "2.0"
    },
    "scene" : 0,
    "scenes" : [
        {
            "name" : "Scene",
            "nodes" : [
                0
            ]
        }
    ],
    "nodes" : [
        {
            "mesh" : 0,
            "name" : "Curve.010",
            "translation" : [
                -4.4962274841964245e-05,
                -0.07735984027385712,
                -9.168729593511671e-05
            ]
        }
    ],
    "materials" : [
        {
            "doubleSided" : true,
            "name" : "SVGMat.002",
            "pbrMetallicRoughness" : {
                "baseColorFactor" : [
                    1,
                    1,
                    1,
                    1
                ],
                "metallicFactor" : 0.26760563254356384,
                "roughnessFactor" : 0.780281662940979
            }
        }
    ],
    "meshes" : [
        {
            "name" : "Curve.010",
            "primitives" : [
                {
                    "attributes" : {
                        "POSITION" : 0,
                        "NORMAL" : 1,
                        "TEXCOORD_0" : 2
                    },
                    "indices" : 3,
                    "material" : 0
                }
            ]
        }
    ],
    "accessors" : [
        {
            "bufferView" : 0,
            "componentType" : 5126,
            "count" : 1662,
            "max" : [
                0.28511902689933777,
                0.04499979317188263,
                0.07815015316009521
            ],
            "min" : [
                -0.2323036789894104,
                -0.04500023275613785,
                -0.07126367092132568
            ],
            "type" : "VEC3"
        },
        {
            "bufferView" : 1,
            "componentType" : 5126,
            "count" : 1662,
            "type" : "VEC3"
        },
        {
            "bufferView" : 2,
            "componentType" : 5126,
            "count" : 1662,
            "type" : "VEC2"
        },
        {
            "bufferView" : 3,
            "componentType" : 5123,
            "count" : 3348,
            "type" : "SCALAR"
        }
    ],
    "bufferViews" : [
        {
            "buffer" : 0,
            "byteLength" : 19944,
            "byteOffset" : 0
        },
        {
            "buffer" : 0,
            "byteLength" : 19944,
            "byteOffset" : 19944
        },
        {
            "buffer" : 0,
            "byteLength" : 13296,
            "byteOffset" : 39888
        },
        {
            "buffer" : 0,
            "byteLength" : 6696,
            "byteOffset" : 53184
        }
    ],
    "buffers" : [
        {
            "byteLength" : 59880,
            "uri" : "data:application/octet-stream;base64,"
        }
    ]
}
